<?xml version="1.0" encoding="iso-8859-1"?>
<!-- Generator: Adobe Illustrator 16.0.0, SVG Export Plug-In . SVG Version: 6.00 Build 0)  -->
<!DOCTYPE svg PUBLIC "-//W3C//DTD SVG 1.1//EN" "http://www.w3.org/Graphics/SVG/1.1/DTD/svg11.dtd">
<svg version="1.1" id="Capa_1" xmlns="http://www.w3.org/2000/svg" xmlns:xlink="http://www.w3.org/1999/xlink" x="0px" y="0px"
	 width="523.315px" height="523.315px" viewBox="0 0 523.315 523.315" style="enable-background:new 0 0 523.315 523.315;"
	 xml:space="preserve">
<g>
	<g>
		<path fill="#45e17a" d="M78.453,250.507H19.615C8.782,250.507,0,259.29,0,270.122v225.424c0,10.833,8.782,19.615,19.615,19.615h58.838
			c10.832,0,19.614-8.782,19.614-19.615v-225.43C98.073,259.283,89.285,250.507,78.453,250.507z"/>
		<path fill="#45e17a" d="M220.143,165.965h-58.837c-10.833,0-19.615,8.782-19.615,19.615v309.965c0,10.833,8.782,19.615,19.615,19.615h58.837
			c10.833,0,19.615-8.782,19.615-19.615V185.574C239.757,174.748,230.975,165.965,220.143,165.965z"/>
		<path fill="#45e17a" d="M361.833,81.424h-58.844c-10.832,0-19.614,8.782-19.614,19.614v394.507c0,10.833,8.782,19.615,19.614,19.615h58.838
			c10.832,0,19.614-8.782,19.614-19.615V101.032C381.441,90.2,372.659,81.424,361.833,81.424z"/>
		<path fill="#45e17a" d="M503.701,8.155h-58.838c-10.833,0-19.615,8.782-19.615,19.615v467.776c0,10.833,8.782,19.615,19.615,19.615h58.838
			c10.832,0,19.614-8.782,19.614-19.615V27.764C523.315,16.931,514.533,8.155,503.701,8.155z"/>
	</g>
</g>
<g>
</g>
<g>
</g>
<g>
</g>
<g>
</g>
<g>
</g>
<g>
</g>
<g>
</g>
<g>
</g>
<g>
</g>
<g>
</g>
<g>
</g>
<g>
</g>
<g>
</g>
<g>
</g>
<g>
</g>
</svg>
