<?xml version="1.0" encoding="UTF-8"?>
<svg width="24px" height="24px" viewBox="0 0 24 24" version="1.1" xmlns="http://www.w3.org/2000/svg" xmlns:xlink="http://www.w3.org/1999/xlink">
    <!-- Generator: Sketch 55 (78076) - https://sketchapp.com -->
    <title>Search Icon</title>
    <desc>Created with Sketch.</desc>
    <g id="Trading" stroke="none" stroke-width="1" fill="none" fill-rule="evenodd">
        <g id="Desktop-HD" transform="translate(-1161.000000, -18.000000)">
            <g id="Header" transform="translate(60.000000, 0.000000)">
                <g id="Search-Icon" transform="translate(1083.000000, 0.000000)">
                    <g id="Group-2">
                        <rect id="Rectangle" x="0" y="0" width="60" height="60"></rect>
                        <g id="Group" transform="translate(18.000000, 18.000000)" fill="#FFFFFF" fill-opacity="0.15" fill-rule="nonzero">
                            <g id="search-(1)">
                                <path d="M23.6350957,21.8601973 L17.7186852,15.9193905 C19.2398983,14.173507 20.0733799,11.9768283 20.0733799,9.68999052 C20.0733799,4.34701401 15.5708335,0 10.03669,0 C4.50254639,0 0,4.34701401 0,9.68999052 C0,15.032967 4.50254639,19.379981 10.03669,19.379981 C12.1142848,19.379981 14.094131,18.7749886 15.7868406,17.6265141 L21.748198,23.6124004 C21.9973698,23.8622336 22.3325079,24 22.6916469,24 C23.0315852,24 23.3540684,23.8748727 23.5988764,23.6473686 C24.1190387,23.164133 24.1356211,22.3628129 23.6350957,21.8601973 Z M10.03669,2.52782361 C14.1272957,2.52782361 17.455113,5.74068743 17.455113,9.68999052 C17.455113,13.6392936 14.1272957,16.8521574 10.03669,16.8521574 C5.94608424,16.8521574 2.61826695,13.6392936 2.61826695,9.68999052 C2.61826695,5.74068743 5.94608424,2.52782361 10.03669,2.52782361 Z" id="Shape"></path>
                            </g>
                        </g>
                    </g>
                </g>
            </g>
        </g>
    </g>
</svg>