<svg width="1024" height="1024" viewBox="0 0 1024 1024" fill="none" xmlns="http://www.w3.org/2000/svg">
<rect width="1024" height="1024" fill="#00BB00"/>
<circle cx="512" cy="512" r="2" fill="#FF0000"/>
<path fill-rule="evenodd" clip-rule="evenodd" d="M643.978 426.045C602.164 409.6 557.133 401.01 511.654 401.01C416.067 401.01 326.157 438.448 258.489 506.423C191.114 574.1 153.682 663.997 153.08 759.556L153 772.389L164.177 778.731C218.045 809.306 278.964 825.393 340.695 825.393C342.392 825.393 344.103 825.381 345.804 825.355C399.615 824.582 452.851 811.674 501.113 787.85C485.895 779.358 471.312 769.794 457.448 759.251C373.326 792.312 277.987 788.236 197.303 746.829C205.151 579.139 343.545 444.815 511.654 444.815C558.41 444.815 604.594 455.133 646.304 474.74C646.84 458.506 646.068 442.235 643.978 426.045" fill="white"/>
<path fill-rule="evenodd" clip-rule="evenodd" d="M870.227 756.578C868.946 637.773 810.955 529.38 714.288 463.352C714.36 480.736 713.195 498.111 710.802 515.382C779.491 571.333 821.367 653.722 825.948 743.986C677.779 820.151 492.995 766.811 408.822 621.265C386.088 581.95 372.148 537.993 368.052 493.079C353.751 500.859 340.093 509.809 327.199 519.844C333.998 563.068 348.773 605.043 370.822 643.167C418.703 725.96 495.681 785.318 587.57 810.301C618.745 818.779 650.443 822.973 681.966 822.973C743.385 822.973 804.148 807.051 859.13 775.856L870.362 769.479L870.227 756.578Z" fill="white"/>
<path fill-rule="evenodd" clip-rule="evenodd" d="M524.328 153.485L513.245 147L502.16 153.475C447.394 185.449 401.894 231.291 370.577 286.041C343.534 333.324 327.539 386.291 323.787 440.356C338.779 431.465 354.398 423.648 370.547 416.968C384.459 327.843 436.412 247.293 513.225 198.071C654.303 288.564 700.698 476.19 615.958 622.718C593.009 662.401 561.63 696.71 524.456 723.053C538.341 731.5 552.921 738.833 568.071 744.966C602.437 717.169 631.694 683.119 653.958 644.62C752.897 473.542 694.743 253.221 524.328 153.485" fill="white"/>
<path fill-rule="evenodd" clip-rule="evenodd" d="M513.025 527.306C492.814 527.306 476.373 543.721 476.373 563.897C476.373 584.073 492.814 600.488 513.025 600.488C533.237 600.488 549.682 584.073 549.682 563.897C549.682 543.721 533.237 527.306 513.025 527.306M513.025 644.293C468.619 644.293 432.495 608.23 432.495 563.897C432.495 519.566 468.619 483.501 513.025 483.501C557.432 483.501 593.56 519.566 593.56 563.897C593.56 608.23 557.432 644.293 513.025 644.293" fill="white"/>
</svg>
