<svg viewBox="0 0 500 250" fill="none" xmlns="http://www.w3.org/2000/svg">
    <path fill-rule="evenodd" clip-rule="evenodd" d="M247.613 47.9042C249.158 46.6986 251.316 46.6986 252.861 47.9042C269.34 60.7665 288.167 60.6628 295.275 60.6236C295.631 60.6216 295.957 60.6198 296.253 60.6198C297.401 60.6198 298.501 61.0842 299.307 61.9089C300.112 62.7336 300.555 63.8494 300.537 65.0061C300.203 85.6891 299.315 100.721 297.59 111.963C295.863 123.213 293.251 131.005 289.242 136.979C285.205 142.995 280.014 146.763 274.006 150.385C271.999 151.595 269.935 152.772 267.767 154.009C263.289 156.562 258.37 159.367 252.61 163.228C251.173 164.192 249.301 164.192 247.863 163.228C242.112 159.373 237.202 156.571 232.734 154.021C230.559 152.78 228.488 151.599 226.476 150.384C220.472 146.761 215.29 142.993 211.261 136.975C207.261 131.001 204.657 123.209 202.937 111.961C201.218 100.72 200.335 85.6885 200.001 65.0061C199.982 63.8494 200.425 62.7336 201.23 61.9089C202.036 61.0842 203.136 60.6198 204.284 60.6198C204.576 60.6198 204.9 60.6216 205.253 60.6236C212.304 60.6628 231.132 60.7675 247.613 47.9042ZM208.649 69.2529C209.032 87.549 209.897 100.781 211.405 110.646C213.031 121.276 215.359 127.659 218.364 132.148C221.341 136.593 225.238 139.575 230.879 142.979C232.595 144.014 234.506 145.106 236.59 146.296C240.571 148.57 245.178 151.202 250.237 154.478C255.306 151.196 259.922 148.561 263.91 146.284C265.987 145.099 267.894 144.01 269.606 142.978C275.254 139.573 279.16 136.591 282.144 132.144C285.156 127.655 287.491 121.273 289.122 110.644C290.636 100.779 291.505 87.5486 291.888 69.2534C283.155 69.1266 266.072 67.7875 250.237 56.6712C234.418 67.776 217.356 69.1238 208.649 69.2529Z" fill="white"/>
</svg>
