<?xml version="1.0" encoding="UTF-8"?>
<svg width="24px" height="24px" viewBox="0 0 24 24" version="1.1" xmlns="http://www.w3.org/2000/svg" xmlns:xlink="http://www.w3.org/1999/xlink">
    <!-- Generator: Sketch 55 (78076) - https://sketchapp.com -->
    <title>wallet</title>
    <desc>Created with Sketch.</desc>
    <g id="Trading" stroke="none" stroke-width="1" fill="none" fill-rule="evenodd">
        <g id="Desktop-HD" transform="translate(-18.000000, -138.000000)" fill="#D3D3D3" fill-rule="nonzero">
            <g id="Sidebar">
                <g id="Group-2" transform="translate(0.000000, 120.000000)">
                    <g id="wallet" transform="translate(18.000000, 18.000000)">
                        <path d="M24,11.1801861 L22.8368309,11.1801861 L22.8368309,5.88325231 C22.8368309,4.61336136 21.7932582,3.58026254 20.5104927,3.58026254 L18.935107,3.58026254 L17.3229447,0.71073472 C17.0772363,0.272196276 16.6096376,0 16.1025112,0 C15.8661418,0 15.6316547,0.0603447246 15.4246052,0.174082347 L9.23744627,3.58019088 L2.32633817,3.58019088 C1.04357269,3.58019088 0,4.6132897 0,5.88318064 L0,21.6970102 C0,22.9669012 1.04357269,24 2.32633817,24 L20.5104927,24 C21.7932582,24 22.8368309,22.9669012 22.8368309,21.6970102 L22.8368309,17.0527598 L24,17.0527598 L24,11.1801861 Z M20.5104927,4.50141545 C21.2269852,4.50141545 21.8122981,5.04028954 21.890919,5.72981044 L20.142437,5.72981044 L19.4528754,4.50141545 L20.5104927,4.50141545 Z M15.8772906,0.979204243 C16.0954889,0.858084784 16.3891227,0.942796737 16.5095878,1.15794503 L19.0778698,5.72938043 L7.24796163,5.72938043 L15.8772906,0.979204243 Z M21.9062667,21.6970102 C21.9062667,22.4588445 21.2799783,23.0788471 20.5104203,23.0788471 L2.32633817,23.0788471 C1.55678024,23.0788471 0.930491833,22.4588445 0.930491833,21.6970102 L0.930491833,5.88325231 C0.930491833,5.12141808 1.55678024,4.50141545 2.32633817,4.50141545 L7.56432741,4.50141545 L5.33289896,5.72988211 L2.61714855,5.72988211 C2.35985702,5.72988211 2.15186643,5.9362152 2.15186643,6.19049439 C2.15186643,6.44477359 2.35985702,6.65110668 2.61714855,6.65110668 L3.65934573,6.65110668 L20.6598434,6.65110668 L21.9062667,6.65110668 L21.9062667,11.1806161 L18.5037781,11.1806161 C16.9236867,11.1806161 15.6377358,12.4537321 15.6377358,14.0178932 L15.6377358,14.2159844 C15.6377358,15.7802172 16.9237591,17.0532615 18.5037781,17.0532615 L21.9062667,17.0532615 L21.9062667,21.6970102 Z M23.0694358,16.1316069 L22.8368309,16.1316069 L18.5037781,16.1316069 C17.4364599,16.1316069 16.5682277,15.2721604 16.5682277,14.2154827 L16.5682277,14.0173915 C16.5682277,12.9607855 17.4363875,12.1012673 18.5037781,12.1012673 L22.8368309,12.1012673 L23.0694358,12.1012673 L23.0694358,16.1316069 Z M19.928872,14.154278 C19.928872,14.7162293 19.4691643,15.1712514 18.9015882,15.1712514 C18.3339396,15.1712514 17.8743043,14.7161576 17.8743043,14.154278 C17.8743043,13.5923984 18.334012,13.1373046 18.9015882,13.1373046 C19.4692367,13.1372329 19.928872,13.5927567 19.928872,14.154278 Z" id="Shape"></path>
                    </g>
                </g>
            </g>
        </g>
    </g>
</svg>